<svg width="600" height="400" viewBox="0 0 600 400" fill="none" xmlns="http://www.w3.org/2000/svg">
  <rect width="600" height="400" rx="10" fill="#E8F5E9"/>
  <path d="M0 50H600V350C600 377.614 577.614 400 550 400H50C22.3858 400 0 377.614 0 350V50Z" fill="#C8E6C9"/>
  
  <!-- Mountains -->
  <path d="M0 200L100 150L200 220L300 170L400 250L500 180L600 230V400H0V200Z" fill="#81C784"/>
  <path d="M0 250L100 200L200 270L300 220L400 300L500 230L600 280V400H0V250Z" fill="#4CAF50"/>
  <path d="M0 300L100 250L200 320L300 270L400 350L500 280L600 330V400H0V300Z" fill="#2E7D32"/>
  
  <!-- Sun -->
  <circle cx="500" cy="100" r="50" fill="#FFC107"/>
  <circle cx="500" cy="100" r="40" fill="#FFEB3B"/>
  
  <!-- Trees -->
  <path d="M150 300L130 350H170L150 300Z" fill="#33691E"/>
  <rect x="145" y="350" width="10" height="20" fill="#795548"/>
  
  <path d="M250 320L230 370H270L250 320Z" fill="#33691E"/>
  <rect x="245" y="370" width="10" height="20" fill="#795548"/>
  
  <path d="M350 280L330 330H370L350 280Z" fill="#33691E"/>
  <rect x="345" y="330" width="10" height="20" fill="#795548"/>
  
  <path d="M450 330L430 380H470L450 330Z" fill="#33691E"/>
  <rect x="445" y="380" width="10" height="20" fill="#795548"/>
  
  <!-- Map Overlay -->
  <rect x="100" y="100" width="300" height="200" rx="10" fill="white" fill-opacity="0.7"/>
  <path d="M150 150L200 180L250 160L300 200L350 170" stroke="#2E7D32" stroke-width="3"/>
  <circle cx="150" cy="150" r="5" fill="#F44336"/>
  <circle cx="200" cy="180" r="5" fill="#F44336"/>
  <circle cx="250" cy="160" r="5" fill="#F44336"/>
  <circle cx="300" cy="200" r="5" fill="#F44336"/>
  <circle cx="350" cy="170" r="5" fill="#F44336"/>
  
  <!-- Grid Lines -->
  <line x1="100" y1="150" x2="400" y2="150" stroke="#BDBDBD" stroke-width="1" stroke-dasharray="5 5"/>
  <line x1="100" y1="200" x2="400" y2="200" stroke="#BDBDBD" stroke-width="1" stroke-dasharray="5 5"/>
  <line x1="100" y1="250" x2="400" y2="250" stroke="#BDBDBD" stroke-width="1" stroke-dasharray="5 5"/>
  <line x1="150" y1="100" x2="150" y2="300" stroke="#BDBDBD" stroke-width="1" stroke-dasharray="5 5"/>
  <line x1="200" y1="100" x2="200" y2="300" stroke="#BDBDBD" stroke-width="1" stroke-dasharray="5 5"/>
  <line x1="250" y1="100" x2="250" y2="300" stroke="#BDBDBD" stroke-width="1" stroke-dasharray="5 5"/>
  <line x1="300" y1="100" x2="300" y2="300" stroke="#BDBDBD" stroke-width="1" stroke-dasharray="5 5"/>
  <line x1="350" y1="100" x2="350" y2="300" stroke="#BDBDBD" stroke-width="1" stroke-dasharray="5 5"/>
  
  <!-- Legend -->
  <rect x="420" y="150" width="150" height="80" rx="5" fill="white"/>
  <circle cx="435" cy="170" r="5" fill="#F44336"/>
  <text x="450" y="175" font-family="Arial" font-size="12" fill="#333333">FRA Claims</text>
  <line x1="435" y1="195" x2="445" y2="195" stroke="#2E7D32" stroke-width="3"/>
  <text x="450" y="200" font-family="Arial" font-size="12" fill="#333333">Forest Cover</text>
  <rect x="430" y="210" width="10" height="10" fill="#81C784"/>
  <text x="450" y="220" font-family="Arial" font-size="12" fill="#333333">Protected Area</text>
</svg>