<svg width="400" height="400" viewBox="0 0 400 400" fill="none" xmlns="http://www.w3.org/2000/svg">
  <rect width="400" height="400" fill="#F8F9FA"/>
  
  <!-- Leaf pattern -->
  <g opacity="0.05">
    <!-- Row 1 -->
    <path d="M25 25C25 25 35 15 50 25C65 35 50 50 50 50C50 50 35 65 25 50C15 35 25 25 25 25Z" fill="#2E7D32"/>
    <path d="M125 25C125 25 135 15 150 25C165 35 150 50 150 50C150 50 135 65 125 50C115 35 125 25 125 25Z" fill="#2E7D32"/>
    <path d="M225 25C225 25 235 15 250 25C265 35 250 50 250 50C250 50 235 65 225 50C215 35 225 25 225 25Z" fill="#2E7D32"/>
    <path d="M325 25C325 25 335 15 350 25C365 35 350 50 350 50C350 50 335 65 325 50C315 35 325 25 325 25Z" fill="#2E7D32"/>
    
    <!-- Row 2 -->
    <path d="M75 75C75 75 85 65 100 75C115 85 100 100 100 100C100 100 85 115 75 100C65 85 75 75 75 75Z" fill="#2E7D32"/>
    <path d="M175 75C175 75 185 65 200 75C215 85 200 100 200 100C200 100 185 115 175 100C165 85 175 75 175 75Z" fill="#2E7D32"/>
    <path d="M275 75C275 75 285 65 300 75C315 85 300 100 300 100C300 100 285 115 275 100C265 85 275 75 275 75Z" fill="#2E7D32"/>
    <path d="M375 75C375 75 385 65 400 75C415 85 400 100 400 100C400 100 385 115 375 100C365 85 375 75 375 75Z" fill="#2E7D32"/>
    
    <!-- Row 3 -->
    <path d="M25 125C25 125 35 115 50 125C65 135 50 150 50 150C50 150 35 165 25 150C15 135 25 125 25 125Z" fill="#2E7D32"/>
    <path d="M125 125C125 125 135 115 150 125C165 135 150 150 150 150C150 150 135 165 125 150C115 135 125 125 125 125Z" fill="#2E7D32"/>
    <path d="M225 125C225 125 235 115 250 125C265 135 250 150 250 150C250 150 235 165 225 150C215 135 225 125 225 125Z" fill="#2E7D32"/>
    <path d="M325 125C325 125 335 115 350 125C365 135 350 150 350 150C350 150 335 165 325 150C315 135 325 125 325 125Z" fill="#2E7D32"/>
    
    <!-- Row 4 -->
    <path d="M75 175C75 175 85 165 100 175C115 185 100 200 100 200C100 200 85 215 75 200C65 185 75 175 75 175Z" fill="#2E7D32"/>
    <path d="M175 175C175 175 185 165 200 175C215 185 200 200 200 200C200 200 185 215 175 200C165 185 175 175 175 175Z" fill="#2E7D32"/>
    <path d="M275 175C275 175 285 165 300 175C315 185 300 200 300 200C300 200 285 215 275 200C265 185 275 175 275 175Z" fill="#2E7D32"/>
    <path d="M375 175C375 175 385 165 400 175C415 185 400 200 400 200C400 200 385 215 375 200C365 185 375 175 375 175Z" fill="#2E7D32"/>
    
    <!-- Row 5 -->
    <path d="M25 225C25 225 35 215 50 225C65 235 50 250 50 250C50 250 35 265 25 250C15 235 25 225 25 225Z" fill="#2E7D32"/>
    <path d="M125 225C125 225 135 215 150 225C165 235 150 250 150 250C150 250 135 265 125 250C115 235 125 225 125 225Z" fill="#2E7D32"/>
    <path d="M225 225C225 225 235 215 250 225C265 235 250 250 250 250C250 250 235 265 225 250C215 235 225 225 225 225Z" fill="#2E7D32"/>
    <path d="M325 225C325 225 335 215 350 225C365 235 350 250 350 250C350 250 335 265 325 250C315 235 325 225 325 225Z" fill="#2E7D32"/>
    
    <!-- Row 6 -->
    <path d="M75 275C75 275 85 265 100 275C115 285 100 300 100 300C100 300 85 315 75 300C65 285 75 275 75 275Z" fill="#2E7D32"/>
    <path d="M175 275C175 275 185 265 200 275C215 285 200 300 200 300C200 300 185 315 175 300C165 285 175 275 175 275Z" fill="#2E7D32"/>
    <path d="M275 275C275 275 285 265 300 275C315 285 300 300 300 300C300 300 285 315 275 300C265 285 275 275 275 275Z" fill="#2E7D32"/>
    <path d="M375 275C375 275 385 265 400 275C415 285 400 300 400 300C400 300 385 315 375 300C365 285 375 275 375 275Z" fill="#2E7D32"/>
    
    <!-- Row 7 -->
    <path d="M25 325C25 325 35 315 50 325C65 335 50 350 50 350C50 350 35 365 25 350C15 335 25 325 25 325Z" fill="#2E7D32"/>
    <path d="M125 325C125 325 135 315 150 325C165 335 150 350 150 350C150 350 135 365 125 350C115 335 125 325 125 325Z" fill="#2E7D32"/>
    <path d="M225 325C225 325 235 315 250 325C265 335 250 350 250 350C250 350 235 365 225 350C215 335 225 325 225 325Z" fill="#2E7D32"/>
    <path d="M325 325C325 325 335 315 350 325C365 335 350 350 350 350C350 350 335 365 325 350C315 335 325 325 325 325Z" fill="#2E7D32"/>
    
    <!-- Row 8 -->
    <path d="M75 375C75 375 85 365 100 375C115 385 100 400 100 400C100 400 85 415 75 400C65 385 75 375 75 375Z" fill="#2E7D32"/>
    <path d="M175 375C175 375 185 365 200 375C215 385 200 400 200 400C200 400 185 415 175 400C165 385 175 375 175 375Z" fill="#2E7D32"/>
    <path d="M275 375C275 375 285 365 300 375C315 385 300 400 300 400C300 400 285 415 275 400C265 385 275 375 275 375Z" fill="#2E7D32"/>
    <path d="M375 375C375 375 385 365 400 375C415 385 400 400 400 400C400 400 385 415 375 400C365 385 375 375 375 375Z" fill="#2E7D32"/>
  </g>
</svg>